<svg xmlns="http://www.w3.org/2000/svg" viewBox="0 0 800 1000" width="800" height="1000">
  <defs>
    <linearGradient id="g3" x1="0%" y1="0%" x2="100%" y2="100%">
      <stop offset="0%" stop-color="#FBF6EF"/>
      <stop offset="100%" stop-color="#F3E8DD"/>
    </linearGradient>
  </defs>
  <rect width="800" height="1000" fill="url(#g3)"/>
  <path d="M 0.0,150.0 Q 80.0,163.0 160.0,140.0 M 160.0,140.0 Q 240.0,117.0 320.0,130.0 M 320.0,130.0 Q 400.0,143.0 480.0,120.0 M 480.0,120.0 Q 560.0,97.0 640.0,110.0 M 640.0,110.0 Q 720.0,123.0 800.0,100.0" fill="none" stroke="#5A1F3D" stroke-width="1.2" opacity="0.35"/><path d="M 0.0,900.0 Q 80.0,913.0 160.0,890.0 M 160.0,890.0 Q 240.0,867.0 320.0,880.0 M 320.0,880.0 Q 400.0,893.0 480.0,870.0 M 480.0,870.0 Q 560.0,847.0 640.0,860.0 M 640.0,860.0 Q 720.0,873.0 800.0,850.0" fill="none" stroke="#5A1F3D" stroke-width="1.2" opacity="0.35"/>
  <g transform="rotate(217.41121389463 232.29736133881048 535.3833802367615)"><path d="M 280.5,535.4 L 283.0,540.7 L 284.7,546.4 L 285.4,552.6 L 285.0,559.1 L 283.4,565.7 L 280.7,572.2 L 276.8,578.6 L 271.6,584.6 L 265.4,590.1 L 258.1,594.8 L 249.9,598.8 L 240.9,601.7 L 231.4,603.6 L 221.4,604.4 L 211.3,603.9 L 201.2,602.2 L 191.4,599.3 L 182.1,595.1 L 173.5,589.9 L 165.8,583.7 L 159.2,576.5 L 153.9,568.7 L 149.9,560.3 L 147.4,551.5 L 146.3,542.6 L 146.8,533.7 L 148.6,525.0 L 151.9,516.7 L 156.5,509.0 L 162.2,502.0 L 168.9,495.9 L 176.4,490.8 L 184.5,486.7 L 193.0,483.7 L 201.7,481.8 L 210.4,481.1 L 218.9,481.3 L 226.9,482.6 L 234.4,484.7 L 241.2,487.7" fill="none" stroke="#C9A15B" stroke-width="1.4" stroke-linecap="round" opacity="0.55"/></g><g transform="rotate(301.48886955472557 480.4609946291546 152.4230873918505)"><path d="M 516.1,152.4 L 518.0,156.3 L 519.2,160.6 L 519.7,165.2 L 519.4,170.0 L 518.3,174.8 L 516.3,179.7 L 513.3,184.4 L 509.6,188.8 L 504.9,192.9 L 499.5,196.4 L 493.5,199.3 L 486.8,201.5 L 479.8,202.9 L 472.4,203.4 L 464.9,203.1 L 457.4,201.8 L 450.2,199.7 L 443.3,196.6 L 437.0,192.7 L 431.3,188.1 L 426.4,182.9 L 422.5,177.1 L 419.5,170.8 L 417.7,164.4 L 416.9,157.7 L 417.2,151.2 L 418.6,144.7 L 421.0,138.6 L 424.4,132.9 L 428.6,127.8 L 433.6,123.2 L 439.1,119.4 L 445.1,116.4 L 451.4,114.2 L 457.9,112.8 L 464.3,112.2 L 470.5,112.4 L 476.5,113.4 L 482.0,115.0 L 487.0,117.1" fill="none" stroke="#C9A15B" stroke-width="1.4" stroke-linecap="round" opacity="0.55"/></g><g transform="rotate(169.29486270808127 245.9865691699249 287.4647688373571)"><path d="M 316.2,287.5 L 319.9,295.1 L 322.3,303.6 L 323.3,312.6 L 322.7,322.0 L 320.5,331.6 L 316.5,341.1 L 310.7,350.4 L 303.3,359.1 L 294.2,367.1 L 283.6,374.1 L 271.6,379.8 L 258.5,384.1 L 244.6,386.9 L 230.1,388.0 L 215.3,387.3 L 200.7,384.8 L 186.4,380.5 L 172.8,374.5 L 160.3,366.9 L 149.1,357.8 L 139.5,347.4 L 131.8,336.0 L 126.0,323.7 L 122.3,311.0 L 120.7,298.0 L 121.4,285.0 L 124.1,272.3 L 128.9,260.2 L 135.6,249.0 L 143.9,238.9 L 153.7,230.0 L 164.6,222.5 L 176.4,216.6 L 188.8,212.2 L 201.5,209.5 L 214.1,208.3 L 226.4,208.7 L 238.2,210.6 L 249.1,213.7 L 258.9,218.0" fill="none" stroke="#C9A15B" stroke-width="1.4" stroke-linecap="round" opacity="0.55"/></g><g transform="rotate(54.22191264846862 615.3353288156088 481.08256695946795)"><path d="M 673.0,481.1 L 676.0,487.4 L 678.0,494.3 L 678.8,501.7 L 678.3,509.4 L 676.5,517.3 L 673.2,525.2 L 668.5,532.8 L 662.4,540.0 L 654.9,546.5 L 646.2,552.2 L 636.4,556.9 L 625.6,560.5 L 614.2,562.7 L 602.3,563.6 L 590.2,563.1 L 578.1,561.0 L 566.4,557.5 L 555.2,552.6 L 545.0,546.3 L 535.8,538.8 L 527.9,530.3 L 521.5,520.9 L 516.8,510.9 L 513.7,500.4 L 512.5,489.7 L 513.0,479.0 L 515.3,468.6 L 519.2,458.7 L 524.6,449.5 L 531.5,441.2 L 539.5,433.9 L 548.5,427.7 L 558.2,422.8 L 568.4,419.3 L 578.8,417.0 L 589.2,416.1 L 599.3,416.4 L 608.9,417.9 L 617.9,420.5 L 626.0,424.0" fill="none" stroke="#C9A15B" stroke-width="1.4" stroke-linecap="round" opacity="0.55"/></g>
  <rect x="14" y="14" width="772" height="972" fill="none" stroke="#C9A15B" stroke-width="1" opacity="0.5"/>
  <circle cx="400.0" cy="500.0" r="112.00000000000001" fill="none" stroke="#D9A0AC" stroke-width="1" opacity="0.6"/>
  <text x="400.0" y="494.0" text-anchor="middle" font-family="Georgia, 'Times New Roman', serif" font-size="25.6" fill="#4A3540" letter-spacing="1">REPLACE — CLASSIC BRIDAL</text>
  <text x="400.0" y="522.0" text-anchor="middle" font-family="Arial, sans-serif" font-size="16.0" fill="#C9A15B" letter-spacing="2">800×1000</text>
</svg>